<svg width="16" height="16" viewBox="0 0 16 16" fill="none" xmlns="http://www.w3.org/2000/svg">
<g clip-path="url(#clip0_501:50)">
<path d="M0.5 15.997C0.366667 15.997 0.240667 15.945 0.146667 15.8503C0.052 15.7563 0 15.6303 0 15.497C0 15.3637 0.052 15.2377 0.146667 15.1437L14.2933 0.996994H10.5C10.224 0.996994 10 0.772994 10 0.496994C10 0.220994 10.224 -0.00300598 10.5 -0.00300598H15.5C15.5593 -0.00300598 15.6173 0.00766068 15.674 0.028994C15.6813 0.0316607 15.6887 0.0343273 15.6953 0.036994C15.8127 0.084994 15.912 0.184327 15.9627 0.306994C15.9647 0.312327 15.9673 0.318327 15.9693 0.324327C15.9893 0.378327 16 0.437661 16 0.496994V5.49699C16 5.77299 15.776 5.99699 15.5 5.99699C15.224 5.99699 15 5.77299 15 5.49699V1.70433L0.853333 15.8503C0.759333 15.945 0.633333 15.997 0.5 15.997Z" fill="white"/>
</g>
<defs>
<clipPath id="clip0_501:50">
<rect width="16" height="16" fill="white"/>
</clipPath>
</defs>
</svg>
