<svg width="12" height="13" viewBox="0 0 12 13" fill="none" xmlns="http://www.w3.org/2000/svg">
<path d="M3.25 4.75H1.25C1.11193 4.75 1 4.86193 1 5V11.5C1 11.6381 1.11193 11.75 1.25 11.75H3.25C3.38807 11.75 3.5 11.6381 3.5 11.5V5C3.5 4.86193 3.38807 4.75 3.25 4.75Z" fill="white"/>
<path d="M2.24 3.75C2.92483 3.75 3.48 3.19036 3.48 2.5C3.48 1.80964 2.92483 1.25 2.24 1.25C1.55517 1.25 1 1.80964 1 2.5C1 3.19036 1.55517 3.75 2.24 3.75Z" fill="white"/>
<path d="M9.25 11.75H10.75C10.8163 11.75 10.8799 11.7237 10.9268 11.6768C10.9737 11.6299 11 11.5663 11 11.5V7.3C11 5.415 9.935 4.5 8.445 4.5C8.15111 4.48925 7.85822 4.54021 7.58522 4.64958C7.31223 4.75895 7.06518 4.92431 6.86 5.135C6.8326 5.16666 6.79615 5.18917 6.75557 5.1995C6.71499 5.20983 6.67223 5.20749 6.63302 5.19279C6.59381 5.17809 6.56005 5.15173 6.53627 5.11726C6.51248 5.0828 6.49983 5.04188 6.5 5C6.5 4.9337 6.47366 4.87011 6.42678 4.82323C6.37989 4.77634 6.3163 4.75 6.25 4.75H4.75C4.6837 4.75 4.62011 4.77634 4.57322 4.82323C4.52634 4.87011 4.5 4.9337 4.5 5V11.5C4.5 11.5663 4.52634 11.6299 4.57322 11.6768C4.62011 11.7237 4.6837 11.75 4.75 11.75H6.25C6.3163 11.75 6.37989 11.7237 6.42678 11.6768C6.47366 11.6299 6.5 11.5663 6.5 11.5V7.75C6.5 7.41848 6.6317 7.10054 6.86612 6.86612C7.10054 6.6317 7.41848 6.5 7.75 6.5C8.08152 6.5 8.39946 6.6317 8.63388 6.86612C8.8683 7.10054 9 7.41848 9 7.75V11.5C9 11.5663 9.02634 11.6299 9.07322 11.6768C9.12011 11.7237 9.1837 11.75 9.25 11.75Z" fill="white"/>
</svg>
