<svg width="16" height="16" viewBox="0 0 16 16" fill="none" xmlns="http://www.w3.org/2000/svg">
<path d="M8.00004 5.92668C8.0152 5.3835 7.85892 4.84935 7.55337 4.40001C7.25151 4.03448 6.86626 3.7468 6.43004 3.56117C5.99383 3.37555 5.51941 3.29741 5.04671 3.33334H0.666707C0.578302 3.33334 0.493517 3.36846 0.431005 3.43097C0.368493 3.49349 0.333374 3.57827 0.333374 3.66668V13C0.333374 13.0884 0.368493 13.1732 0.431005 13.2357C0.493517 13.2982 0.578302 13.3333 0.666707 13.3333H4.72671C5.19012 13.3376 5.65268 13.2929 6.10671 13.2C6.50973 13.1098 6.88629 12.9272 7.20671 12.6667C7.4766 12.4489 7.70281 12.182 7.87337 11.88C8.16468 11.4002 8.31486 10.848 8.30671 10.2867C8.32262 9.77154 8.19076 9.26261 7.92671 8.82001C7.65785 8.43541 7.27207 8.14783 6.82671 8.00001C7.11127 7.86341 7.36525 7.67066 7.57337 7.43334C7.89007 6.99775 8.04132 6.46364 8.00004 5.92668V5.92668ZM2.33337 5.66668C2.33337 5.57827 2.36849 5.49349 2.43101 5.43097C2.49352 5.36846 2.5783 5.33334 2.66671 5.33334H5.00004C5.26526 5.33334 5.51961 5.4387 5.70715 5.62624C5.89468 5.81377 6.00004 6.06813 6.00004 6.33334C6.00004 6.59856 5.89468 6.85291 5.70715 7.04045C5.51961 7.22799 5.26526 7.33334 5.00004 7.33334H2.66671C2.5783 7.33334 2.49352 7.29822 2.43101 7.23571C2.36849 7.1732 2.33337 7.08841 2.33337 7.00001V5.66668ZM6.33337 10C6.33337 10.3536 6.1929 10.6928 5.94285 10.9428C5.6928 11.1929 5.35366 11.3333 5.00004 11.3333H2.66671C2.5783 11.3333 2.49352 11.2982 2.43101 11.2357C2.36849 11.1732 2.33337 11.0884 2.33337 11V9.00001C2.33337 8.9116 2.36849 8.82682 2.43101 8.76431C2.49352 8.70179 2.5783 8.66668 2.66671 8.66668H5.00004C5.35366 8.66668 5.6928 8.80715 5.94285 9.0572C6.1929 9.30725 6.33337 9.64639 6.33337 10Z" fill="white"/>
<path d="M14 2.66666H10.6667C10.4826 2.66666 10.3334 2.81589 10.3334 2.99999V3.66666C10.3334 3.85075 10.4826 3.99999 10.6667 3.99999H14C14.1841 3.99999 14.3334 3.85075 14.3334 3.66666V2.99999C14.3334 2.81589 14.1841 2.66666 14 2.66666Z" fill="white"/>
<path d="M15.3333 10C15.4217 10 15.5065 9.96488 15.569 9.90237C15.6315 9.83985 15.6666 9.75507 15.6666 9.66666C15.6719 9.29905 15.6519 8.93152 15.6066 8.56666C15.534 8.03328 15.3426 7.52298 15.0466 7.07333C14.7496 6.60489 14.3237 6.23219 13.82 6C13.3588 5.77006 12.8486 5.65566 12.3333 5.66666C11.3477 5.63743 10.39 5.99656 9.66664 6.66666C8.96619 7.45701 8.60672 8.49229 8.66664 9.54666C8.61686 10.0792 8.68815 10.616 8.87518 11.1171C9.06221 11.6181 9.36012 12.0704 9.74664 12.44C10.4798 13.0277 11.3938 13.3433 12.3333 13.3333C12.9309 13.382 13.5306 13.2706 14.0708 13.0104C14.611 12.7503 15.0721 12.3509 15.4066 11.8533C15.4407 11.8029 15.4603 11.7442 15.4634 11.6834C15.4665 11.6226 15.4528 11.5622 15.424 11.5086C15.3951 11.455 15.3522 11.4104 15.2998 11.3795C15.2474 11.3486 15.1875 11.3326 15.1266 11.3333H13.7933C13.7063 11.3328 13.6226 11.3663 13.56 11.4267L13.5133 11.4667C13.1549 11.6991 12.7335 11.8154 12.3066 11.8C11.9472 11.8105 11.5926 11.7155 11.2866 11.5267C11.1007 11.3967 10.9449 11.2282 10.8298 11.0326C10.7148 10.8371 10.6432 10.619 10.62 10.3933C10.6112 10.3454 10.613 10.2961 10.6254 10.2489C10.6377 10.2017 10.6603 10.1579 10.6914 10.1204C10.7226 10.0829 10.7616 10.0526 10.8057 10.0318C10.8498 10.011 10.8979 10.0002 10.9466 10H15.3333ZM10.98 8.66666C10.9366 8.66684 10.8937 8.65716 10.8545 8.63834C10.8154 8.61953 10.7811 8.59207 10.7541 8.55804C10.7271 8.52401 10.7083 8.48431 10.6989 8.44191C10.6895 8.39952 10.6899 8.35556 10.7 8.31333C10.7796 7.94008 10.9849 7.60546 11.2816 7.36539C11.5782 7.12532 11.9483 6.99434 12.33 6.99434C12.7116 6.99434 13.0817 7.12532 13.3784 7.36539C13.6751 7.60546 13.8804 7.94008 13.96 8.31333C13.9701 8.35556 13.9704 8.39952 13.9611 8.44191C13.9517 8.48431 13.9328 8.52401 13.9058 8.55804C13.8789 8.59207 13.8445 8.61953 13.8054 8.63834C13.7663 8.65716 13.7234 8.66684 13.68 8.66666H10.98Z" fill="white"/>
</svg>
