<svg width="12" height="13" viewBox="0 0 12 13" fill="none" xmlns="http://www.w3.org/2000/svg">
<g clip-path="url(#clip0_501:66)">
<path d="M5.99999 9.875C5.95599 9.875 5.91249 9.867 5.86999 9.8515C5.86599 9.85 5.86249 9.849 5.85899 9.8475C5.81099 9.828 5.76949 9.8005 5.73449 9.765L3.85999 7.89C3.71399 7.744 3.71399 7.506 3.85999 7.3595C3.93099 7.2885 4.02499 7.2495 4.12499 7.2495C4.22499 7.2495 4.31949 7.2885 4.38999 7.3595L5.62499 8.5945V3.875C5.62499 3.668 5.79299 3.5 5.99999 3.5C6.20699 3.5 6.37499 3.668 6.37499 3.875V8.5945L7.60999 7.3595C7.68099 7.2885 7.77499 7.2495 7.87499 7.2495C7.97499 7.2495 8.06949 7.2885 8.13999 7.3595C8.28599 7.5055 8.28599 7.7435 8.13999 7.89L6.26499 9.765C6.22999 9.8 6.18849 9.8275 6.14199 9.847C6.13799 9.8485 6.13349 9.8505 6.12899 9.852C6.08649 9.8675 6.04349 9.875 5.99999 9.875Z" fill="white"/>
<path d="M6 12.5C2.6915 12.5 0 9.8085 0 6.5C0 3.1915 2.6915 0.5 6 0.5C9.3085 0.5 12 3.1915 12 6.5C12 9.8085 9.3085 12.5 6 12.5ZM6 1.25C3.105 1.25 0.75 3.605 0.75 6.5C0.75 9.395 3.105 11.75 6 11.75C8.895 11.75 11.25 9.395 11.25 6.5C11.25 3.605 8.895 1.25 6 1.25Z" fill="white"/>
</g>
<defs>
<clipPath id="clip0_501:66">
<rect width="12" height="12" fill="white" transform="translate(0 0.5)"/>
</clipPath>
</defs>
</svg>
