<svg width="16" height="16" viewBox="0 0 16 16" fill="none" xmlns="http://www.w3.org/2000/svg">
<g clip-path="url(#clip0_905_13661)">
<path d="M16 7.99999C16.0001 6.61377 15.64 5.25131 14.955 4.04616C14.27 2.84101 13.2837 1.83454 12.0926 1.12539C10.9015 0.416246 9.54653 0.0287681 8.16059 0.00094101C6.77465 -0.0268861 5.40527 0.305892 4.18667 0.966656H4.15333C2.89725 1.6627 1.84994 2.6817 1.11974 3.91823C0.389535 5.15477 0.00296014 6.56395 8.93062e-07 7.99999C-0.000871656 9.84278 0.637661 11.6288 1.80667 13.0533V13.0533C2.8508 14.3304 4.26417 15.2534 5.85322 15.6961C7.44227 16.1387 9.1293 16.0793 10.6833 15.5261C12.2373 14.9728 13.5823 13.9526 14.534 12.6054C15.4858 11.2581 15.9978 9.64954 16 7.99999V7.99999ZM13.38 4.07999C14.1698 5.15156 14.6182 6.43635 14.6667 7.76666C14.08 7.70666 13.4533 7.67332 12.92 7.67332C11.9877 7.67702 11.0576 7.76178 10.14 7.92666C9.96 7.46666 9.76667 7.01332 9.54667 6.59332C10.939 5.94485 12.2302 5.0983 13.38 4.07999V4.07999ZM12.4933 3.09332C11.4095 4.03832 10.1919 4.81786 8.88 5.40666C8.03452 4.02944 6.98477 2.78863 5.76667 1.72666C6.90244 1.3113 8.1305 1.21598 9.31676 1.45112C10.503 1.68625 11.6019 2.2428 12.4933 3.05999V3.09332ZM4.45333 2.36666C5.69366 3.36476 6.76321 4.55815 7.62 5.89999C6.0992 6.41203 4.50468 6.67103 2.9 6.66666C2.42667 6.66666 1.95333 6.66666 1.48 6.59332C1.66936 5.72638 2.0299 4.90596 2.54047 4.18017C3.05104 3.45438 3.70137 2.83783 4.45333 2.36666V2.36666ZM1.33333 7.94666C1.85333 7.99999 2.37333 8.03332 2.89333 8.03332C4.73224 8.03096 6.55689 7.71069 8.28667 7.08666C8.47778 7.45999 8.65111 7.83999 8.80667 8.22666C6.44119 8.85355 4.25295 10.0195 2.41333 11.6333C1.69574 10.5387 1.31981 9.25545 1.33333 7.94666V7.94666ZM3.24667 12.6667C4.96668 11.1451 7.0229 10.053 9.24667 9.47999C9.66305 10.8616 9.87419 12.297 9.87333 13.74C9.87333 13.96 9.87333 14.18 9.87333 14.4067C8.71507 14.7479 7.48558 14.7662 6.31768 14.4595C5.14979 14.1528 4.08788 13.5329 3.24667 12.6667V12.6667ZM11.2467 13.84C11.2467 13.84 11.2467 13.7733 11.2467 13.74C11.2419 12.2048 11.0174 10.6782 10.58 9.20666C11.3512 9.07818 12.1315 9.0113 12.9133 9.00666C13.4267 9.00666 14.02 9.03999 14.5733 9.09999C14.4073 10.0924 14.0188 11.0344 13.4369 11.8553C12.855 12.6762 12.0948 13.3547 11.2133 13.84H11.2467Z" fill="white"/>
</g>
<defs>
<clipPath id="clip0_905_13661">
<rect width="16" height="16" fill="white"/>
</clipPath>
</defs>
</svg>
