<svg width="12" height="13" viewBox="0 0 12 13" fill="none" xmlns="http://www.w3.org/2000/svg">
<g clip-path="url(#clip0_501:73)">
<path d="M3.37 12.5H8.62C9.51557 12.5 10.3745 12.1446 11.0083 11.5118C11.642 10.879 11.9987 10.0206 12 9.125V3.875C11.9987 2.97943 11.642 2.121 11.0083 1.48821C10.3745 0.855419 9.51557 0.499999 8.62 0.5L3.37 0.5C2.47617 0.502644 1.61977 0.859231 0.988204 1.49174C0.356635 2.12424 0.00131833 2.98116 0 3.875L0 9.125C0.00131833 10.0188 0.356635 10.8758 0.988204 11.5083C1.61977 12.1408 2.47617 12.4974 3.37 12.5ZM0.745 3.875C0.746322 3.17921 1.02331 2.5123 1.5153 2.0203C2.0073 1.52831 2.67421 1.25132 3.37 1.25H8.62C9.31579 1.25132 9.9827 1.52831 10.4747 2.0203C10.9667 2.5123 11.2437 3.17921 11.245 3.875V9.125C11.2437 9.82079 10.9667 10.4877 10.4747 10.9797C9.9827 11.4717 9.31579 11.7487 8.62 11.75H3.37C2.67421 11.7487 2.0073 11.4717 1.5153 10.9797C1.02331 10.4877 0.746322 9.82079 0.745 9.125V3.875Z" fill="white"/>
<path d="M5.99999 9.375C6.5684 9.37401 7.12376 9.20455 7.59589 8.88804C8.06803 8.57153 8.43574 8.12218 8.65258 7.59675C8.86942 7.07133 8.92564 6.49342 8.81414 5.93605C8.70264 5.37869 8.42843 4.86688 8.02616 4.4653C7.62389 4.06373 7.1116 3.79041 6.55404 3.67988C5.99648 3.56935 5.41867 3.62658 4.89363 3.84433C4.36858 4.06207 3.91986 4.43057 3.60418 4.90325C3.28849 5.37594 3.12 5.93159 3.12 6.5C3.12132 7.26295 3.42533 7.99421 3.96529 8.53323C4.50525 9.07226 5.23704 9.375 5.99999 9.375ZM5.99999 4.375C6.42007 4.37599 6.83042 4.50145 7.17922 4.73555C7.52801 4.96965 7.7996 5.30187 7.95967 5.69025C8.11974 6.07863 8.16111 6.50574 8.07855 6.91762C7.99599 7.3295 7.79321 7.70767 7.49583 8.00436C7.19845 8.30104 6.8198 8.50293 6.40773 8.58452C5.99565 8.66611 5.56864 8.62374 5.18064 8.46276C4.79264 8.30177 4.46106 8.02941 4.22778 7.68006C3.9945 7.33072 3.87 6.92007 3.86999 6.5C3.87132 5.93595 4.09631 5.39546 4.49562 4.99709C4.89493 4.59872 5.43595 4.375 5.99999 4.375Z" fill="white"/>
<path d="M9.42004 3.7C9.76522 3.7 10.045 3.42017 10.045 3.075C10.045 2.72982 9.76522 2.45 9.42004 2.45C9.07487 2.45 8.79504 2.72982 8.79504 3.075C8.79504 3.42017 9.07487 3.7 9.42004 3.7Z" fill="white"/>
</g>
<defs>
<clipPath id="clip0_501:73">
<rect width="12" height="12" fill="white" transform="translate(0 0.5)"/>
</clipPath>
</defs>
</svg>
